<svg width="128" height="128" viewBox="0 0 128 128" fill="none" xmlns="http://www.w3.org/2000/svg">
  <rect width="128" height="128" rx="32" fill="#3153A4"/>
  <path d="M36 47C36 39.8203 41.8203 34 49 34H57C64.1797 34 70 39.8203 70 47V49H59V47C59 45.3431 57.6569 44 56 44H50C48.3431 44 47 45.3431 47 47V81C47 82.6569 48.3431 84 50 84H56C57.6569 84 59 82.6569 59 81V79H70V81C70 88.1797 64.1797 94 57 94H49C41.8203 94 36 88.1797 36 81V47Z" fill="#FFFDF5"/>
  <path d="M76 34H82.5L92 55.5L101.5 34H108V94H97V59.5L92.5 70H91.5L87 59.5V94H76V34Z" fill="#FFD643"/>
</svg>
